<svg width="12" height="11" viewBox="0 0 12 11" fill="none" xmlns="http://www.w3.org/2000/svg">
<path d="M6.1919 4.34487V6.56519H9.21155C8.76748 7.76417 7.61291 8.56348 6.28072 8.56348C4.54886 8.56348 3.17226 7.18688 3.17226 5.45503C3.17226 3.72317 4.54886 2.34657 6.28072 2.34657C6.94681 2.34657 7.56851 2.56861 8.10139 2.92386L8.27901 3.05708L9.61121 1.32522L9.43358 1.192C8.50104 0.525906 7.43529 0.170654 6.28072 0.170654C3.34989 0.170654 0.951935 2.56861 0.951935 5.49944C0.951935 8.43027 3.34989 10.8282 6.28072 10.8282C9.21155 10.8282 11.6095 8.43027 11.6095 5.49944V4.38927H6.1919V4.34487Z" fill="white"/>
</svg>
