<svg width="11" height="11" viewBox="0 0 11 11" fill="none" xmlns="http://www.w3.org/2000/svg">
<path d="M8.80069 0.731567H1.97898C1.20879 0.731567 0.621979 1.31838 0.621979 2.08857V8.91028C0.621979 9.68047 1.20879 10.2673 1.97898 10.2673H8.80069C9.57088 10.2673 10.1577 9.68047 10.1577 8.91028V2.08857C10.1577 1.31838 9.57088 0.731567 8.80069 0.731567ZM5.38984 8.36014C6.9669 8.36014 8.25055 7.11316 8.25055 5.60945C8.25055 5.35272 8.21387 5.05931 8.14052 4.83926H8.94739V8.7269C8.94739 8.91028 8.80069 9.09365 8.58063 9.09365H2.19904C2.01566 9.09365 1.83228 8.94695 1.83228 8.7269V4.80258H2.67583C2.60248 5.05931 2.5658 5.31605 2.5658 5.57278C2.52912 7.11316 3.81278 8.36014 5.38984 8.36014ZM5.38984 7.25986C4.36291 7.25986 3.55604 6.453 3.55604 5.46275C3.55604 4.4725 4.36291 3.66563 5.38984 3.66563C6.41676 3.66563 7.22363 4.4725 7.22363 5.46275C7.22363 6.48967 6.41676 7.25986 5.38984 7.25986ZM8.91072 3.33555C8.91072 3.55561 8.72734 3.73899 8.50728 3.73899H7.48036C7.2603 3.73899 7.07693 3.55561 7.07693 3.33555V2.3453C7.07693 2.12525 7.2603 1.94187 7.48036 1.94187H8.50728C8.72734 1.94187 8.91072 2.12525 8.91072 2.3453V3.33555Z" fill="white"/>
</svg>
