<svg width="12" height="14" viewBox="0 0 12 14" fill="none" xmlns="http://www.w3.org/2000/svg">
<path d="M9.28904 0.915958C7.15106 0.507669 4.93086 0.507669 2.79289 0.915958C1.84724 1.1201 0.654914 2.26331 0.449339 3.16154C0.0793055 4.91718 0.0793055 6.71365 0.449339 8.46929C0.696029 9.36753 1.88836 10.5107 2.79289 10.7149C2.834 10.7149 2.87511 10.7557 2.87511 10.7965V13.3688C2.87511 13.4912 3.03958 13.5729 3.12181 13.4504L4.35525 12.1847C4.35525 12.1847 5.34201 11.164 5.50647 11.0007C5.50647 11.0007 5.54758 10.9599 5.5887 10.9599C6.82215 11.0007 8.09671 10.8782 9.33015 10.6741C10.2758 10.4699 11.4681 9.3267 11.6737 8.42846C12.0437 6.67282 12.0437 4.87636 11.6737 3.12071C11.427 2.26331 10.2347 1.1201 9.28904 0.915958ZM9.33015 8.59178C9.12458 9.00007 8.87789 9.3267 8.46674 9.53084C8.3434 9.57167 8.22005 9.6125 8.09671 9.65333C7.93225 9.6125 7.8089 9.57167 7.68556 9.53084C6.36988 9.00007 5.13644 8.26515 4.14968 7.2036C3.61519 6.59117 3.16292 5.89708 2.79289 5.16216C2.62843 4.7947 2.46397 4.46807 2.34062 4.10061C2.21728 3.77398 2.42285 3.44735 2.62843 3.20237C2.834 2.9574 3.08069 2.79408 3.3685 2.6716C3.57407 2.54911 3.77964 2.63077 3.9441 2.79408C4.27302 3.20237 4.60194 3.61066 4.84863 4.05978C5.01309 4.34558 4.97197 4.67221 4.68417 4.87635C4.60194 4.91718 4.56083 4.95801 4.4786 5.03967C4.43748 5.0805 4.35525 5.12133 4.31414 5.20299C4.23191 5.32547 4.23191 5.44796 4.27302 5.57045C4.60194 6.50951 5.21866 7.24443 6.16431 7.65272C6.32876 7.73437 6.45211 7.7752 6.65769 7.7752C6.94549 7.73437 7.06883 7.40774 7.27441 7.24443C7.47998 7.08111 7.72667 7.08111 7.97336 7.2036C8.17893 7.32609 8.38451 7.4894 8.6312 7.65272C8.83677 7.81603 9.04235 7.93852 9.24792 8.10183C9.37127 8.18349 9.41238 8.38764 9.33015 8.59178ZM7.60333 5.52962C7.5211 5.52962 7.56221 5.52962 7.60333 5.52962C7.43887 5.52962 7.39775 5.44796 7.35664 5.32547C7.35664 5.24382 7.35664 5.12133 7.31552 5.03967C7.27441 4.87636 7.19218 4.71304 7.02772 4.59055C6.94549 4.54972 6.86326 4.5089 6.78103 4.46807C6.65768 4.42724 6.57546 4.42724 6.45211 4.42724C6.32877 4.38641 6.28765 4.30475 6.28765 4.18226C6.28765 4.10061 6.411 4.01895 6.49323 4.01895C7.15106 4.05978 7.64444 4.42724 7.72667 5.20299C7.72667 5.24381 7.72667 5.32547 7.72667 5.3663C7.72667 5.44796 7.68555 5.52962 7.60333 5.52962ZM7.19218 3.73315C6.9866 3.65149 6.78103 3.56983 6.53434 3.529C6.45211 3.529 6.32877 3.48817 6.24654 3.48817C6.12319 3.48817 6.04096 3.40652 6.08208 3.28403C6.08208 3.16154 6.16431 3.07989 6.28765 3.12071C6.6988 3.16154 7.06883 3.2432 7.43887 3.40652C8.17894 3.77398 8.59008 4.38641 8.71343 5.20299C8.71343 5.24381 8.71343 5.28464 8.71343 5.32547C8.71343 5.40713 8.71343 5.48879 8.71343 5.61127C8.71343 5.6521 8.71343 5.69293 8.71343 5.73376C8.67231 5.89708 8.38451 5.93791 8.34339 5.73376C8.34339 5.69293 8.30228 5.61127 8.30228 5.57045C8.30228 5.20299 8.22005 4.83553 8.05559 4.5089C7.8089 4.14144 7.5211 3.89646 7.19218 3.73315ZM9.41238 6.18288C9.28904 6.18288 9.20681 6.06039 9.20681 5.93791C9.20681 5.69293 9.16569 5.44796 9.12458 5.20299C8.96012 3.89646 7.89113 2.83491 6.61657 2.63077C6.411 2.58994 6.20542 2.58994 6.04096 2.54911C5.91762 2.54911 5.75316 2.54911 5.71204 2.3858C5.67093 2.26331 5.79427 2.14082 5.91762 2.14082C5.95873 2.14082 5.99985 2.14082 5.99985 2.14082C7.68556 2.18165 6.08208 2.14082 5.99985 2.14082C7.72667 2.18165 9.16569 3.32486 9.4535 5.03967C9.49461 5.32547 9.53573 5.61127 9.53573 5.93791C9.61796 6.06039 9.53573 6.18288 9.41238 6.18288Z" fill="white"/>
</svg>
