<svg width="13" height="12" viewBox="0 0 13 12" fill="none" xmlns="http://www.w3.org/2000/svg">
<path d="M10.3375 1.76666C9.22935 0.662339 7.75179 0.0488281 6.19215 0.0488281C2.94973 0.0488281 0.322964 2.66647 0.322964 5.89763C0.322964 6.92015 0.610267 7.94267 1.10279 8.80158L0.281921 11.8282L3.40121 11.0102C4.26312 11.4601 5.20711 11.7055 6.19215 11.7055C9.43456 11.7055 12.0613 9.08789 12.0613 5.85673C12.0203 4.34341 11.4457 2.87098 10.3375 1.76666ZM9.02413 7.98357C8.901 8.31078 8.3264 8.63798 8.03909 8.67888C7.79283 8.71978 7.46449 8.71978 7.13614 8.63798C6.93093 8.55618 6.64362 8.47438 6.31528 8.31078C4.83772 7.69727 3.89373 6.22484 3.81164 6.10214C3.72955 6.02034 3.19599 5.32502 3.19599 4.58881C3.19599 3.8526 3.56538 3.52539 3.68851 3.36179C3.81164 3.19818 3.97581 3.19818 4.09894 3.19818C4.18103 3.19818 4.30416 3.19818 4.38624 3.19818C4.46833 3.19818 4.59146 3.15728 4.71459 3.44359C4.83772 3.72989 5.12502 4.46611 5.16607 4.50701C5.20711 4.58881 5.20711 4.67061 5.16607 4.75241C5.12502 4.83421 5.08398 4.91601 5.00189 4.99782C4.91981 5.07962 4.83772 5.20232 4.79668 5.24322C4.71459 5.32502 4.6325 5.40682 4.71459 5.52953C4.79668 5.69313 5.08398 6.14304 5.53546 6.55204C6.11006 7.04285 6.56154 7.20646 6.72571 7.28826C6.88988 7.37006 6.97197 7.32916 7.05405 7.24736C7.13614 7.16556 7.42345 6.83835 7.50553 6.67475C7.58762 6.51114 7.71075 6.55204 7.83388 6.59295C7.95701 6.63385 8.69579 7.00195 8.81892 7.08375C8.98309 7.16556 9.06517 7.20646 9.10622 7.24736C9.14726 7.37006 9.14726 7.65636 9.02413 7.98357Z" fill="white"/>
</svg>
