<svg width="40" height="42" viewBox="0 0 40 42" fill="none" xmlns="http://www.w3.org/2000/svg">
<path d="M-8.96783e-07 20.7144C-1.39181e-06 9.28014 8.98 0.000140747 20 0.000140261L20.5595 0.00810151C31.3412 0.315333 40 9.47394 40 20.7144C40 32.128 31.04 41.4287 20 41.4287C8.98 41.4287 -4.02655e-07 32.128 -8.96783e-07 20.7144ZM14.42 20.7144C14.42 21.1287 14.58 21.5223 14.86 21.8123L21.84 29.0001C22.12 29.3109 22.5 29.4559 22.88 29.4559C23.28 29.4559 23.66 29.3109 23.96 29.0001C24.54 28.3787 24.54 27.4051 23.94 26.8044L18.04 20.7144L23.94 14.6244C24.54 14.0237 24.54 13.0294 23.96 12.4287C23.36 11.8073 22.42 11.8073 21.84 12.4287L14.86 19.6166C14.58 19.9066 14.42 20.3001 14.42 20.7144Z" fill="white" fill-opacity="0.5"/>
</svg>
