<svg width="40" height="42" viewBox="0 0 40 42" fill="none" xmlns="http://www.w3.org/2000/svg">
<path d="M40 20.7143C40 32.1486 31.02 41.4286 20 41.4286L19.4405 41.4206C8.65884 41.1134 -1.38342e-06 31.9548 -8.96783e-07 20.7143C-4.02655e-07 9.30071 8.96 -1.36992e-06 20 -8.82677e-07C31.02 -3.96322e-07 40 9.30071 40 20.7143ZM25.58 20.7143C25.58 20.3 25.42 19.9064 25.14 19.6164L18.16 12.4286C17.88 12.1179 17.5 11.9729 17.12 11.9729C16.72 11.9729 16.34 12.1179 16.04 12.4286C15.46 13.05 15.46 14.0236 16.06 14.6243L21.96 20.7143L16.06 26.8043C15.46 27.405 15.46 28.3993 16.04 29C16.64 29.6214 17.58 29.6214 18.16 29L25.14 21.8121C25.42 21.5221 25.58 21.1286 25.58 20.7143Z" fill="white"/>
</svg>
