<svg width="43" height="36" viewBox="0 0 43 36" fill="none" xmlns="http://www.w3.org/2000/svg">
<path d="M31.8699 0C34.7307 0 37.4827 1.04691 39.5072 2.92543C41.5339 4.8 42.6667 7.32839 42.6667 9.97531V25.5802C42.6667 31.0914 37.824 35.5556 31.8699 35.5556H10.7947C4.84053 35.5556 0 31.0914 0 25.5802V9.97531C0 4.4642 4.8192 0 10.7947 0H31.8699ZM34.2827 10.2716C33.8347 10.2499 33.408 10.3901 33.0859 10.6667L23.4667 17.7778C22.2293 18.7279 20.4565 18.7279 19.2 17.7778L9.6 10.6667C8.93653 10.2123 8.0192 10.2716 7.46667 10.8049C6.89067 11.3383 6.82667 12.1877 7.3152 12.7802L7.59467 13.037L17.3013 20.0494C18.496 20.9185 19.9445 21.3926 21.4613 21.3926C22.9739 21.3926 24.448 20.9185 25.6405 20.0494L35.264 12.9185L35.4347 12.7605C35.9445 12.1877 35.9445 11.358 35.4112 10.7852C35.1147 10.4909 34.7072 10.3111 34.2827 10.2716Z" fill="white"/>
</svg>
