<svg width="36" height="43" viewBox="0 0 36 43" fill="none" xmlns="http://www.w3.org/2000/svg">
<path d="M17.7641 0C27.5161 0 35.5556 7.9315 35.5556 17.7446C35.5556 22.6895 33.7924 27.2803 30.8905 31.1714C27.689 35.4635 23.7431 39.2031 19.3015 42.1385C18.285 42.8169 17.3676 42.8681 16.2519 42.1385C11.7851 39.2031 7.83914 35.4635 4.6651 31.1714C1.76101 27.2803 0 22.6895 0 17.7446C0 7.9315 8.03949 0 17.7641 0ZM17.7641 12.3239C14.5394 12.3239 11.9095 15.0353 11.9095 18.2971C11.9095 21.5844 14.5394 24.17 17.7641 24.17C20.9908 24.17 23.6461 21.5844 23.6461 18.2971C23.6461 15.0353 20.9908 12.3239 17.7641 12.3239Z" fill="white"/>
</svg>
