<svg width="36" height="36" viewBox="0 0 36 36" fill="none" xmlns="http://www.w3.org/2000/svg">
<path d="M28.741 22.0075C27.5469 21.7506 26.6022 22.305 25.7658 22.7892C24.9091 23.2882 23.2803 24.6095 22.3466 24.2713C17.5664 22.3032 13.0705 18.1192 11.1242 13.3198C10.7812 12.3662 12.0964 10.727 12.5917 9.86022C13.0723 9.0212 13.6152 8.06761 13.3676 6.86453C13.1438 5.78341 10.2493 2.10024 9.22573 1.09305C8.5507 0.427756 7.85916 0.0618411 7.14928 0.00270338C4.48035 -0.111876 1.49958 3.44932 0.976804 4.30128C-0.332898 6.11791 -0.325561 8.53517 0.998816 11.4662C4.19053 19.3389 16.2622 31.22 24.1644 34.5317C25.6227 35.2137 26.9562 35.5556 28.154 35.5556C29.3262 35.5556 30.3699 35.2284 31.2669 34.5798C31.9437 34.1898 35.6509 31.0611 35.5537 28.3204C35.495 27.6219 35.13 26.9233 34.4733 26.2469C33.4736 25.2138 29.8141 22.2329 28.741 22.0075Z" fill="white"/>
</svg>
